# xmcd
#
# Track frame offsets:
#   150
#   9986
#   19886
#   39228
#   52120
#   63886
#   78839
#   94167
#   105034
#   114719
#   139773
#
# Disc length: 2095 seconds
#
# Revision: 0
# Processed by: cddbd v1.5.2PL0 Copyright (c) Steve Scherf et al.
# Submitted via: GXTranscoder 2.0.1939
#
DISCID=7d082d0b
DTITLE=Karin - Just me
DYEAR=1900
DGENRE=Alternative
TTITLE0=Sympathie
TTITLE1=500 Miles
TTITLE2=Famous blue raincoat
TTITLE3=Kinder
TTITLE4=Das Spiel
TTITLE5=Donna Donna
TTITLE6=Mad World
TTITLE7=Nights in white satin
TTITLE8=Little Drummerboy
TTITLE9=Zombie
TTITLE10=Trunkenbold
EXTD=
EXTT0=
EXTT1=
EXTT2=
EXTT3=
EXTT4=
EXTT5=
EXTT6=
EXTT7=
EXTT8=
EXTT9=
EXTT10=
PLAYORDER=
